<svg xmlns="http://www.w3.org/2000/svg" width="800" height="1280" viewBox="0 0 800 1280">
    <defs>
      <linearGradient id="heroGradient" x1="0" y1="0" x2="1" y2="1">
        <stop offset="0%" stop-color="#f0c8a6" />
        <stop offset="100%" stop-color="#a33a2d" />
      </linearGradient>
    </defs>
    <rect width="800" height="1280" fill="#fbf7f2"/>
    <text x="50" y="26" font-size="20" fill="#6f7787" font-family="Arial, Helvetica, sans-serif">Option C: Magazine Ledger</text>
    <rect x="50" y="40" rx="36" ry="36" width="700" height="170" fill="#ffffff" stroke="#f0c8a6" stroke-width="2"/>
        <rect x="80" y="68" rx="10" ry="10" width="170" height="34" fill="#a33a2d"/>
        <text x="108" y="91" font-size="18" fill="#ffffff">WEEKEND EDITION</text>
        <text x="80" y="150" font-size="58" font-weight="800" fill="#1e2330">Newsletter Digest</text>
    <text x="60" y="250" font-size="18" fill="#6f7787" font-family="Arial, Helvetica, sans-serif">Built for light + dark-safe contrast, email-safe layout, and web preview parity</text>

        <rect x="50" y="290" rx="24" ry="24" width="700" height="255" fill="#ffffff" stroke="#f0c8a6" stroke-width="1.5"/>
        <circle cx="88" cy="322" r="8" fill="#a33a2d" />
            <text x="106" y="328" font-size="16" fill="#6f7787">AI infra / cloud</text>
            <text x="600" y="328" font-size="14" fill="#6f7787">Mar 21, 8:10 AM PT</text>
        <text x="70" y="364" font-size="30" font-weight="700" fill="#1e2330">Nvidia's quietly booming networking unit becomes a second engine</text>
        <circle cx="76" cy="377" r="4" fill="#a33a2d" /><circle cx="76" cy="405" r="4" fill="#a33a2d" /><circle cx="76" cy="433" r="4" fill="#a33a2d" />
        <text x="92" y="382" font-size="18" fill="#1e2330">Revenue mix shifted from chips to bundled networking + optics.</text><text x="92" y="410" font-size="18" fill="#1e2330">Mellanox integration now looks like a margin expansion story.</text><text x="92" y="438" font-size="18" fill="#1e2330">Signals stronger AI data-center moat beyond GPU compute.</text>
        <text x="70" y="505" font-size="20" fill="#6f7787">Why this matters: Value capture is moving into the full AI rack, not just the accelerator.</text>
        <text x="70" y="530" font-size="18" font-weight="700" fill="#a33a2d">Read article</text>


        <rect x="50" y="575" rx="24" ry="24" width="700" height="255" fill="#ffffff" stroke="#f0c8a6" stroke-width="1.5"/>
        <circle cx="88" cy="607" r="8" fill="#a33a2d" />
            <text x="106" y="613" font-size="16" fill="#6f7787">Search / distribution</text>
            <text x="600" y="613" font-size="14" fill="#6f7787">Mar 21, 11:45 AM PT</text>
        <text x="70" y="649" font-size="30" font-weight="700" fill="#1e2330">Google's AI search UI hints at a ranking model reset</text>
        <circle cx="76" cy="662" r="4" fill="#a33a2d" /><circle cx="76" cy="690" r="4" fill="#a33a2d" /><circle cx="76" cy="718" r="4" fill="#a33a2d" />
        <text x="92" y="667" font-size="18" fill="#1e2330">New answer surfaces compress publisher clickthrough patterns.</text><text x="92" y="695" font-size="18" fill="#1e2330">Retrieval and UI layout appear more tightly coupled.</text><text x="92" y="723" font-size="18" fill="#1e2330">Creates second-order effects for SEO, ads, and discovery.</text>
        <text x="70" y="790" font-size="20" fill="#6f7787">Why this matters: This changes who captures intent and where monetization lands.</text>
        <text x="70" y="815" font-size="18" font-weight="700" fill="#a33a2d">Read article</text>


        <rect x="50" y="860" rx="24" ry="24" width="700" height="255" fill="#ffffff" stroke="#f0c8a6" stroke-width="1.5"/>
        <circle cx="88" cy="892" r="8" fill="#a33a2d" />
            <text x="106" y="898" font-size="16" fill="#6f7787">Agents / evals</text>
            <text x="600" y="898" font-size="14" fill="#6f7787">Mar 21, 3:30 PM PT</text>
        <text x="70" y="934" font-size="30" font-weight="700" fill="#1e2330">A dense engineering post on agent eval loops beats generic benchmark news</text>
        <circle cx="76" cy="947" r="4" fill="#a33a2d" /><circle cx="76" cy="975" r="4" fill="#a33a2d" /><circle cx="76" cy="1003" r="4" fill="#a33a2d" />
        <text x="92" y="952" font-size="18" fill="#1e2330">Shows concrete harness design instead of vague autonomous-agent claims.</text><text x="92" y="980" font-size="18" fill="#1e2330">Separates acceptance tests from exploratory evals.</text><text x="92" y="1008" font-size="18" fill="#1e2330">Makes agent reliability legible to engineering teams.</text>
        <text x="70" y="1075" font-size="20" fill="#6f7787">Why this matters: Reusable eval structure matters more than one-off leaderboard results.</text>
        <text x="70" y="1100" font-size="18" font-weight="700" fill="#a33a2d">Read article</text>

    </svg>